<svg width="58" height="49" viewBox="0 0 58 49" fill="none" xmlns="http://www.w3.org/2000/svg">
<path d="M52.5 1.4375C49.5863 0.43125 46.3838 0 43.3125 0C38.1938 0 32.6813 1.15 28.875 4.3125C25.0688 1.15 19.5563 0 14.4375 0C9.31875 0 3.80625 1.15 0 4.3125V46.4312C0 47.15 0.65625 47.8687 1.3125 47.8687C1.575 47.8687 1.70625 47.725 1.96875 47.725C5.5125 45.8563 10.6313 44.5625 14.4375 44.5625C19.5563 44.5625 25.0688 45.7125 28.875 48.875C32.4188 46.4312 38.85 44.5625 43.3125 44.5625C47.6438 44.5625 52.1063 45.425 55.7813 47.5812C56.0438 47.725 56.175 47.725 56.4375 47.725C57.0938 47.725 57.75 47.0063 57.75 46.2875V4.3125C56.175 3.01875 54.4688 2.15625 52.5 1.4375ZM52.5 40.25C49.6125 39.2438 46.4625 38.8125 43.3125 38.8125C38.85 38.8125 32.4188 40.6812 28.875 43.125V10.0625C32.4188 7.61875 38.85 5.75 43.3125 5.75C46.4625 5.75 49.6125 6.18125 52.5 7.1875V40.25Z" fill="#333652"/>
<path d="M43.3125 17.25C45.6225 17.25 47.8538 17.5088 49.875 17.9975V13.6275C47.8013 13.1962 45.57 12.9375 43.3125 12.9375C38.85 12.9375 34.8075 13.7712 31.5 15.3237V20.0962C34.4663 18.2562 38.5875 17.25 43.3125 17.25ZM31.5 22.9712V27.7437C34.4663 25.9037 38.5875 24.8975 43.3125 24.8975C45.6225 24.8975 47.8538 25.1562 49.875 25.645V21.275C47.8013 20.8437 45.57 20.585 43.3125 20.585C38.85 20.585 34.8075 21.4475 31.5 22.9712ZM43.3125 28.2612C38.85 28.2612 34.8075 29.095 31.5 30.6475V35.42C34.4663 33.58 38.5875 32.5737 43.3125 32.5737C45.6225 32.5737 47.8538 32.8325 49.875 33.3212V28.9512C47.8013 28.4912 45.57 28.2612 43.3125 28.2612Z" fill="#333652"/>
<path d="M52.5 1.4375C49.5863 0.43125 46.3838 0 43.3125 0C38.1938 0 32.6813 1.15 28.875 4.3125C25.0688 1.15 19.5563 0 14.4375 0C9.31875 0 3.80625 1.15 0 4.3125V46.4312C0 47.15 0.65625 47.8687 1.3125 47.8687C1.575 47.8687 1.70625 47.725 1.96875 47.725C5.5125 45.8563 10.6313 44.5625 14.4375 44.5625C19.5563 44.5625 25.0688 45.7125 28.875 48.875C32.4188 46.4312 38.85 44.5625 43.3125 44.5625C47.6438 44.5625 52.1063 45.425 55.7813 47.5812C56.0438 47.725 56.175 47.725 56.4375 47.725C57.0938 47.725 57.75 47.0063 57.75 46.2875V4.3125C56.175 3.01875 54.4688 2.15625 52.5 1.4375ZM52.5 40.25C49.6125 39.2438 46.4625 38.8125 43.3125 38.8125C38.85 38.8125 32.4188 40.6812 28.875 43.125V10.0625C32.4188 7.61875 38.85 5.75 43.3125 5.75C46.4625 5.75 49.6125 6.18125 52.5 7.1875V40.25Z" fill="#333652"/>
<path d="M43.3125 17.25C45.6225 17.25 47.8538 17.5088 49.875 17.9975V13.6275C47.8013 13.1962 45.57 12.9375 43.3125 12.9375C38.85 12.9375 34.8075 13.7712 31.5 15.3237V20.0962C34.4663 18.2562 38.5875 17.25 43.3125 17.25ZM31.5 22.9712V27.7437C34.4663 25.9037 38.5875 24.8975 43.3125 24.8975C45.6225 24.8975 47.8538 25.1562 49.875 25.645V21.275C47.8013 20.8437 45.57 20.585 43.3125 20.585C38.85 20.585 34.8075 21.4475 31.5 22.9712ZM43.3125 28.2612C38.85 28.2612 34.8075 29.095 31.5 30.6475V35.42C34.4663 33.58 38.5875 32.5737 43.3125 32.5737C45.6225 32.5737 47.8538 32.8325 49.875 33.3212V28.9512C47.8013 28.4912 45.57 28.2612 43.3125 28.2612Z" fill="#333652"/>
</svg>
